HIERARCHY
ROOT Hips
{
	OFFSET 0.000000 0.000000 0.000000
	CHANNELS 6 Xposition Yposition Zposition Zrotation Yrotation Xrotation 
	JOINT LHipJoint
	{
		OFFSET 0.000000 0.000000 0.000000
		CHANNELS 3 Zrotation Yrotation Xrotation
		JOINT LeftUpLeg
		{
			OFFSET 1.363060 -1.794630 0.839290
			CHANNELS 3 Zrotation Yrotation Xrotation
			JOINT LeftLeg
			{
				OFFSET 2.448110 -6.726130 0.000000
				CHANNELS 3 Zrotation Yrotation Xrotation
				JOINT LeftFoot
				{
					OFFSET 2.562200 -7.039590 0.000000
					CHANNELS 3 Zrotation Yrotation Xrotation
					JOINT LeftToeBase
					{
						OFFSET 0.157640 -0.433110 2.322550
						CHANNELS 3 Zrotation Yrotation Xrotation
						End Site
						{
							OFFSET 0.000000 0.000000 0.000000
						}
					}
				}
			}
		}
	}
	JOINT RHipJoint
	{
		OFFSET 0.000000 0.000000 0.000000
		CHANNELS 3 Zrotation Yrotation Xrotation
		JOINT RightUpLeg
		{
			OFFSET -1.305520 -1.794630 0.839290
			CHANNELS 3 Zrotation Yrotation Xrotation
			JOINT RightLeg
			{
				OFFSET -2.542530 -6.985550 0.000000
				CHANNELS 3 Zrotation Yrotation Xrotation
				JOINT RightFoot
				{
					OFFSET -2.568260 -7.056230 0.000000
					CHANNELS 3 Zrotation Yrotation Xrotation
					JOINT RightToeBase
					{
						OFFSET -0.164730 -0.452590 2.363150
						CHANNELS 3 Zrotation Yrotation Xrotation
						End Site
						{
							OFFSET 0.000000 0.000000 0.000000
						}
					}
				}
			}
		}
	}
	JOINT LowerBack
	{
		OFFSET 0.000000 0.000000 0.000000
		CHANNELS 3 Zrotation Yrotation Xrotation
		JOINT Spine
		{
			OFFSET 0.028270 2.035590 -0.193380
			CHANNELS 3 Zrotation Yrotation Xrotation
			JOINT Spine1
			{
				OFFSET 0.056720 2.048850 -0.042750
				CHANNELS 3 Zrotation Yrotation Xrotation
				JOINT Neck
				{
					OFFSET 0.000000 0.000000 0.000000
					CHANNELS 3 Zrotation Yrotation Xrotation
					JOINT Neck1
					{
						OFFSET -0.054170 1.746240 0.172020
						CHANNELS 3 Zrotation Yrotation Xrotation
						JOINT Head
						{
							OFFSET 0.104070 1.761360 -0.123970
							CHANNELS 3 Zrotation Yrotation Xrotation
							End Site
							{
								OFFSET 0.000000 0.000000 0.000000
							}
						}
					}
				}
				JOINT LeftShoulder
				{
					OFFSET 0.000000 0.000000 0.000000
					CHANNELS 3 Zrotation Yrotation Xrotation
					JOINT LeftArm
					{
						OFFSET 3.362410 1.200890 -0.311210
						CHANNELS 3 Zrotation Yrotation Xrotation
						JOINT LeftForeArm
						{
							OFFSET 4.983000 -0.000000 -0.000000
							CHANNELS 3 Zrotation Yrotation Xrotation
							JOINT LeftHand
							{
								OFFSET 3.483560 -0.000000 -0.000000
								CHANNELS 3 Zrotation Yrotation Xrotation
								JOINT LeftFingerBase
								{
									OFFSET 0.000000 0.000000 0.000000
									CHANNELS 3 Zrotation Yrotation Xrotation
									JOINT LeftHandIndex1
									{
										OFFSET 0.715260 -0.000000 -0.000000
										CHANNELS 3 Zrotation Yrotation Xrotation
										End Site
										{
											OFFSET 0.000000 0.000000 0.000000
										}
									}
								}
								JOINT LThumb
								{
									OFFSET 0.000000 0.000000 0.000000
									CHANNELS 3 Zrotation Yrotation Xrotation
									End Site
									{
										OFFSET 0.000000 0.000000 0.000000
									}
								}
							}
						}
					}
				}
				JOINT RightShoulder
				{
					OFFSET 0.000000 0.000000 0.000000
					CHANNELS 3 Zrotation Yrotation Xrotation
					JOINT RightArm
					{
						OFFSET -3.136600 1.374050 -0.404650
						CHANNELS 3 Zrotation Yrotation Xrotation
						JOINT RightForeArm
						{
							OFFSET -5.241900 -0.000000 -0.000000
							CHANNELS 3 Zrotation Yrotation Xrotation
							JOINT RightHand
							{
								OFFSET -3.444170 -0.000000 -0.000000
								CHANNELS 3 Zrotation Yrotation Xrotation
								JOINT RightFingerBase
								{
									OFFSET 0.000000 0.000000 0.000000
									CHANNELS 3 Zrotation Yrotation Xrotation
									JOINT RightHandIndex1
									{
										OFFSET -0.622530 -0.000000 -0.000000
										CHANNELS 3 Zrotation Yrotation Xrotation
										End Site
										{
											OFFSET 0.000000 0.000000 0.000000
										}
									}
								}
								JOINT RThumb
								{
									OFFSET 0.000000 0.000000 0.000000
									CHANNELS 3 Zrotation Yrotation Xrotation
									End Site
									{
										OFFSET 0.000000 0.000000 0.000000
									}
								}
							}
						}
					}
				}
			}
		}
	}
}
MOTION
Frames: 5
Frame Time: 0.008333
51.490934 17.089626 -8.369917 -14.176719 -83.836000 17.724303 3.364075 0.822752 -1.270050 -20.328206 4.239553 -26.021701 4.554406 14.687386 43.017645 1.129880 -6.585142 -5.754568 0.575200 -4.857000 -13.501000 -6.705821 -1.441019 -1.994514 29.242593 4.041944 -15.299312 -3.927007 -12.548426 36.800335 -2.778360 7.070040 -26.275609 -3.271800 -11.122600 32.694500 0.533579 -1.956244 6.971960 0.723442 -2.468648 -0.759865 0.580221 -1.582386 3.926764 -10.476811 -11.013259 -0.745055 6.245054 -15.067489 1.710559 4.433900 -7.192100 -0.448600 -8.824831 -7.269213 2.011118 -74.745721 -8.586375 34.764799 11.368474 -19.303356 -3.064044 -1.993040 -1.110676 -11.189722 22.997138 17.316920 8.166800 -7.125000 0.000000 0.000000 -2.820300 49.477200 -0.311600 9.456736 6.609743 1.479359 69.747932 -6.596810 35.198779 -15.650396 27.145406 -4.510406 0.647676 -0.388098 -7.714411 -21.261541 4.084966 -1.831000 7.125000 0.000000 0.000000 3.606100 -25.054900 1.742900 
51.479379 17.091084 -8.376163 -14.448996 -83.850058 17.898582 3.400445 0.813429 -1.279705 -20.164094 4.037320 -26.359953 4.710933 14.845212 43.565984 1.078504 -5.900778 -6.300435 0.720500 -5.424200 -15.122500 -6.707226 -1.438026 -2.001629 29.319417 4.040363 -15.077659 -3.905449 -12.508979 36.693614 -2.783910 7.136494 -26.262039 -0.903600 -6.057900 16.952400 0.615865 -1.943426 7.000619 0.741440 -2.454912 -0.756377 0.623801 -1.572699 3.911718 -10.453673 -11.038145 -0.685746 6.242960 -15.109724 1.659447 4.428400 -7.209800 -0.493500 -8.825775 -7.252024 2.002735 -74.872019 -8.278431 34.372098 11.043238 -18.975401 -2.977797 -2.034685 -1.076635 -10.998538 23.586821 17.234981 8.338000 -7.125000 0.000000 0.000000 -2.183500 49.441300 -0.239200 9.484255 6.599966 1.483982 69.767687 -6.537972 34.939063 -15.281781 26.735055 -4.354513 0.645925 -0.388929 -7.354021 -21.075251 4.040914 -1.795000 7.125000 0.000000 0.000000 3.745600 -25.112400 1.805600 
51.464700 17.092333 -8.379807 -14.632455 -83.849820 18.007593 3.419320 0.800759 -1.284994 -20.005635 3.761588 -26.567797 4.772362 14.910053 43.767570 0.999017 -5.030797 -6.755359 0.857500 -5.905200 -16.509700 -6.704162 -1.436402 -2.014975 29.375204 3.957198 -14.863833 -3.871115 -12.453013 36.529060 -2.782374 7.338347 -26.120667 -0.525800 -4.646800 12.903900 0.701985 -1.924170 6.945706 0.757727 -2.434810 -0.746383 0.657832 -1.560061 3.962912 -10.422783 -11.078259 -0.674974 6.273000 -15.171105 1.558493 4.440200 -7.231500 -0.554700 -8.831235 -7.225069 1.997440 -74.990342 -7.964833 33.988423 10.744279 -18.684602 -2.912448 -2.091025 -1.044727 -10.745663 24.421917 17.274852 8.658500 -7.125000 0.000000 0.000000 -1.313100 49.575600 -0.148200 9.512547 6.583201 1.491909 69.795139 -6.436585 34.606825 -14.902171 26.312549 -4.198734 0.643784 -0.390956 -6.999650 -20.893352 4.028162 -1.772500 7.125000 0.000000 0.000000 3.882100 -25.134700 1.869600 
51.444712 17.101078 -8.379182 -14.476274 -83.918904 17.786352 3.434557 0.793394 -1.281668 -19.903702 3.512155 -26.747688 4.803749 14.944002 43.857330 0.920586 -4.151243 -7.336168 0.995400 -6.349600 -17.802100 -6.694424 -1.432284 -2.025854 29.343618 3.864440 -14.633331 -3.835573 -12.390242 36.350495 -2.783875 7.555747 -25.991053 -0.779000 -5.635100 15.729400 0.737224 -1.921954 6.908932 0.769925 -2.435836 -0.754727 0.692614 -1.554533 3.922924 -10.431112 -11.083867 -0.592618 6.264289 -15.189650 1.508143 4.440100 -7.237200 -0.603700 -8.827495 -7.202811 1.981168 -75.172530 -7.532067 33.558862 10.482487 -18.436529 -2.860319 -2.135066 -1.048423 -11.401919 25.247341 17.243104 8.947200 -7.125000 0.000000 0.000000 -0.431500 49.633800 -0.049300 9.530170 6.570223 1.493542 69.796270 -6.465835 34.379942 -14.599452 25.976486 -4.076646 0.645122 -0.391447 -6.757369 -20.781926 3.994872 -1.748900 7.125000 0.000000 0.000000 3.963800 -25.176100 1.905400 
51.425973 17.107532 -8.379703 -14.348411 -83.972868 17.590352 3.441525 0.784140 -1.278083 -19.789218 3.267476 -26.869432 4.797281 14.941045 43.812167 0.817193 -3.200287 -7.725561 1.176300 -6.883700 -19.371400 -6.685708 -1.428376 -2.038409 29.330007 3.786385 -14.388801 -3.796496 -12.323693 36.157053 -2.786280 7.792313 -25.857967 -0.649100 -5.153600 14.347100 0.778119 -1.907815 6.873568 0.780306 -2.421191 -0.758138 0.718505 -1.542674 3.910483 -10.411506 -11.102387 -0.548470 6.261849 -15.221076 1.465166 4.435600 -7.249900 -0.640200 -8.828569 -7.182360 1.969011 -75.309041 -7.172176 33.025373 10.187484 -18.137468 -2.789360 -2.166749 -1.041382 -11.486658 25.706293 17.245282 9.118900 -7.125000 0.000000 0.000000 0.058700 49.688400 0.006800 9.548920 6.559003 1.495035 69.824091 -6.448876 34.085482 -14.279048 25.616490 -3.949730 0.645262 -0.393700 -6.472564 -20.661144 3.975801 -1.730400 7.125000 0.000000 0.000000 4.053200 -25.201500 1.946200 
